<?xml version="1.0" encoding="UTF-8" standalone="no"?>
<svg
   xmlns:dc="http://purl.org/dc/elements/1.1/"
   xmlns:cc="http://creativecommons.org/ns#"
   xmlns:rdf="http://www.w3.org/1999/02/22-rdf-syntax-ns#"
   xmlns:svg="http://www.w3.org/2000/svg"
   xmlns="http://www.w3.org/2000/svg"
   xmlns:xlink="http://www.w3.org/1999/xlink"
   xmlns:sodipodi="http://sodipodi.sourceforge.net/DTD/sodipodi-0.dtd"
   xmlns:inkscape="http://www.inkscape.org/namespaces/inkscape"
   id="Layer_1"
   xml:space="preserve"
   viewBox="555 224.5 660.00439 468.59433"
   version="1.1"
   y="0px"
   x="0px"
   enable-background="new 555 224.5 519 403"
   inkscape:version="0.91 r13725"
   sodipodi:docname="screenshot.svg"
   width="660.00439"
   height="468.59433"
   inkscape:export-filename="C:\Users\martin\1\martin\fuer Tatjana\screenshot.png"
   inkscape:export-xdpi="54.549999"
   inkscape:export-ydpi="54.549999"
   shape-rendering="crispEdges"><defs
     id="defs15"><linearGradient
       inkscape:collect="always"
       id="linearGradient5461"><stop
         offset="0"
         style="stop-color:#fc0"
         id="stop5463" /><stop
         offset="1"
         style="stop-color:#fc0;stop-opacity:0"
         id="stop5465" /></linearGradient><linearGradient
       inkscape:collect="always"
       x1="393.85001"
       y1="526.09998"
       gradientTransform="translate(351.7,50.866)"
       x2="369.14001"
       gradientUnits="userSpaceOnUse"
       xlink:href="#linearGradient5461"
       y2="388.03"
       id="linearGradient6424" /><linearGradient
       inkscape:collect="always"
       x1="393.85001"
       y1="526.09998"
       gradientTransform="matrix(1.0287,0,0,0.82606,339.84,131.76)"
       x2="369.14001"
       gradientUnits="userSpaceOnUse"
       xlink:href="#linearGradient5461"
       y2="388.03"
       id="linearGradient6426" /><linearGradient
       inkscape:collect="always"
       x1="238.34"
       y1="300.84"
       x2="256.51001"
       gradientUnits="userSpaceOnUse"
       y2="48.686001"
       id="linearGradient7363"><stop
         offset="0"
         style="stop-color:black"
         id="stop7359" /><stop
         offset="1"
         style="stop-color:black;stop-opacity:0"
         id="stop7361" /></linearGradient><linearGradient
       inkscape:collect="always"
       x1="622.66998"
       y1="233.98"
       x2="621.35999"
       gradientUnits="userSpaceOnUse"
       y2="40.693001"
       id="linearGradient8256"><stop
         offset="0"
         style="stop-color:#333"
         id="stop8252" /><stop
         offset="1"
         style="stop-color:#333;stop-opacity:0"
         id="stop8254" /></linearGradient><linearGradient
       inkscape:collect="always"
       x1="863.91998"
       y1="455.60999"
       x2="1282.6"
       gradientUnits="userSpaceOnUse"
       y2="574.78003"
       id="linearGradient9149"><stop
         offset="0"
         style="stop-color:#333"
         id="stop9145" /><stop
         offset="1"
         style="stop-color:#333;stop-opacity:0"
         id="stop9147" /></linearGradient><linearGradient
       inkscape:collect="always"
       xlink:href="#linearGradient5461"
       id="linearGradient4278"
       gradientUnits="userSpaceOnUse"
       gradientTransform="translate(351.7,50.866)"
       x1="393.85001"
       y1="526.09998"
       x2="369.14001"
       y2="388.03" /><linearGradient
       inkscape:collect="always"
       xlink:href="#linearGradient5461"
       id="linearGradient4280"
       gradientUnits="userSpaceOnUse"
       gradientTransform="matrix(1.0287,0,0,0.82606,339.84,131.76)"
       x1="393.85001"
       y1="526.09998"
       x2="369.14001"
       y2="388.03" /><linearGradient
       inkscape:collect="always"
       xlink:href="#linearGradient5461"
       id="linearGradient4282"
       gradientUnits="userSpaceOnUse"
       gradientTransform="translate(351.7,50.866)"
       x1="393.85001"
       y1="526.09998"
       x2="369.14001"
       y2="388.03" /><linearGradient
       inkscape:collect="always"
       xlink:href="#linearGradient5461"
       id="linearGradient4284"
       gradientUnits="userSpaceOnUse"
       gradientTransform="matrix(1.0287,0,0,0.82606,339.84,131.76)"
       x1="393.85001"
       y1="526.09998"
       x2="369.14001"
       y2="388.03" /><linearGradient
       inkscape:collect="always"
       xlink:href="#linearGradient5461"
       id="linearGradient4286"
       gradientUnits="userSpaceOnUse"
       gradientTransform="translate(351.7,50.866)"
       x1="393.85001"
       y1="526.09998"
       x2="369.14001"
       y2="388.03" /><linearGradient
       inkscape:collect="always"
       xlink:href="#linearGradient5461"
       id="linearGradient4288"
       gradientUnits="userSpaceOnUse"
       gradientTransform="matrix(1.0287,0,0,0.82606,339.84,131.76)"
       x1="393.85001"
       y1="526.09998"
       x2="369.14001"
       y2="388.03" /><linearGradient
       inkscape:collect="always"
       xlink:href="#linearGradient5461"
       id="linearGradient4290"
       gradientUnits="userSpaceOnUse"
       gradientTransform="translate(351.7,50.866)"
       x1="393.85001"
       y1="526.09998"
       x2="369.14001"
       y2="388.03" /><linearGradient
       inkscape:collect="always"
       xlink:href="#linearGradient5461"
       id="linearGradient4292"
       gradientUnits="userSpaceOnUse"
       gradientTransform="matrix(1.0287,0,0,0.82606,339.84,131.76)"
       x1="393.85001"
       y1="526.09998"
       x2="369.14001"
       y2="388.03" /><linearGradient
       inkscape:collect="always"
       xlink:href="#linearGradient5461"
       id="linearGradient4294"
       gradientUnits="userSpaceOnUse"
       gradientTransform="translate(351.7,50.866)"
       x1="393.85001"
       y1="526.09998"
       x2="369.14001"
       y2="388.03" /><linearGradient
       inkscape:collect="always"
       xlink:href="#linearGradient5461"
       id="linearGradient4296"
       gradientUnits="userSpaceOnUse"
       gradientTransform="matrix(1.0287,0,0,0.82606,339.84,131.76)"
       x1="393.85001"
       y1="526.09998"
       x2="369.14001"
       y2="388.03" /></defs><sodipodi:namedview
     pagecolor="#ffffff"
     bordercolor="#666666"
     borderopacity="1"
     objecttolerance="10"
     gridtolerance="10"
     guidetolerance="10"
     inkscape:pageopacity="1"
     inkscape:pageshadow="2"
     inkscape:window-width="1536"
     inkscape:window-height="801"
     id="namedview13"
     showgrid="false"
     fit-margin-top="0"
     fit-margin-left="0"
     fit-margin-right="0"
     fit-margin-bottom="0"
     inkscape:zoom="0.56069364"
     inkscape:cx="200.727"
     inkscape:cy="285.64333"
     inkscape:window-x="856"
     inkscape:window-y="135"
     inkscape:window-maximized="1"
     inkscape:current-layer="layer1"
     borderlayer="true" /><path
     id="path3"
     d="m 649.787,290.471 c -17.225,-0.46086 -35.548,5.1713 -45.938,19.594 -21.245,25.942 -29.158,60.359 -32.04,93.279 -1.6001,24.024 -0.22767,49.996 13.352,70.565 17.422,23.267 44.297,37.075 69.715,50.212 35.488,16.962 73.57,30.802 113.19,32.569 15.705,0.5597 31.94,-4.7425 42.406,-16.719 24.834,-24.996 38.995,-58.663 48.6,-92.154 6.5158,-24.575 10.818,-51.739 1.8688,-76.158 -9.812,-21.005 -32.262,-31.843 -52.09,-41.823 -43.902,-20.673 -91.499,-33.624 -139.72,-38.708 -6.4312,-0.51841 -12.892,-0.77471 -19.344,-0.65625 z"
     inkscape:connector-curvature="0"
     style="fill:#ffffff" /><g
     id="g3864"
     transform="matrix(0.8985,0.43897,-0.43897,0.8985,-217.533,-543.139)"><path
       id="path3830"
       d="m 1338.1,468.17 29.86,7.4894 -55.946,6.9638 45.694,30.016 -57.249,-16.068 32.914,69.29 -36.902,-36.843 1.0115,29.062 -19.102,-29.938 -12.43,32.038 -24.432,-44.702 -55.518,48.087 16.126,-58.455 -55.537,-1.4786 48.262,-23.051 -46.278,-17.955 53.3,-2.2563 -34.431,-37.933 40.714,8.0147 -9.2593,-58.475 22.195,40.967 32.331,-68.551 0.2332,70.127 65.264,-62.122 -24.394,73.166 59.934,-20.673 -34.315,34.606 56.743,1.537 z"
       inkscape:connector-curvature="0" /><path
       id="path3832"
       d="m 1356.1,446.07 -42.173,22.137 22.74,4.7271 -39.002,6.5748 17.507,12.936 -26.417,-3.6962 25.463,48.379 -22.098,-17.994 -0.8755,18.091 -15.951,-20.114 -10.018,32.155 -19.491,-46.881 -49.254,43.554 21.573,-46.103 -45.889,-1.0117 44.469,-19.608 -41.804,-10.485 38.886,-4.1626 -29.899,-31.669 28.887,2.6068 -6.5749,-39.003 16.749,28.615 24.394,-54.428 3.404,54.565 54.268,-47.241 -23.29,56.597 56.675,-22.04 -31.844,33.517 z"
       inkscape:connector-curvature="0"
       style="fill:#ffffff" /></g><path
     id="path6"
     d="m 642.537,272.321 3.856,0 c 17.788,0.268 35.482,2.506 52.997,5.504 23.646,4.108 47.01,9.749 70.036,16.496 19.36,5.694 38.491,12.207 57.204,19.77 12.53,5.087 24.886,10.642 36.819,17.015 7.874,4.226 15.576,8.799 22.818,14.044 6.427,4.699 12.618,9.903 17.402,16.317 5.956,8.149 8.979,18.06 10.399,27.956 0.676,4.504 0.861,9.059 1.182,13.597 l 0,4.199 c -0.367,5.777 -0.647,11.567 -1.42,17.309 -2.653,20.562 -8.489,40.633 -16.309,59.804 -7.288,17.679 -16.333,34.712 -27.708,50.111 -5.774,7.756 -12.177,15.095 -19.519,21.409 -6.624,5.662 -14.1,10.575 -22.497,13.124 -6.556,2.011 -13.432,2.455 -20.232,2.886 l -4.236,0 c -5.301,-0.349 -10.612,-0.586 -15.889,-1.22 -12.23,-1.38 -24.327,-3.781 -36.277,-6.705 -20.914,-5.164 -41.402,-11.955 -61.456,-19.81 -13.923,-5.47 -27.63,-11.492 -41.047,-18.106 -15.213,-7.529 -30.104,-15.771 -44.169,-25.292 -7.205,-4.903 -14.199,-10.142 -20.655,-16.004 -3.964,-3.61 -7.724,-7.467 -10.992,-11.725 -5.314,-6.961 -9.005,-15.036 -11.658,-23.348 -4.354,-13.771 -5.975,-28.264 -6.186,-42.661 l 0,-4.06 c 0.294,-20.377 3.423,-40.725 9.422,-60.205 3.862,-12.42 8.914,-24.533 15.731,-35.635 4.338,-7.034 9.419,-13.661 15.504,-19.277 4.755,-4.383 10.16,-8.122 16.141,-10.628 4.324,-1.834 8.935,-2.896 13.567,-3.603 5.683,-0.866 11.433,-1.158 17.172,-1.262 m 1.169,22.428 c -6.136,0.46 -12.324,1.319 -18.101,3.525 -7.106,2.771 -13.098,7.791 -18.085,13.469 -6.328,7.255 -11.22,15.65 -15.264,24.354 -4.557,9.879 -8.021,20.243 -10.682,30.783 -2.564,10.235 -4.364,20.663 -5.389,31.163 -1.297,13.605 -1.375,27.387 0.596,40.932 1.367,9.134 3.653,18.234 7.829,26.515 4.309,8.577 11.205,15.485 18.402,21.684 7.16,6.096 14.886,11.489 22.838,16.499 8.082,5.071 16.424,9.717 24.929,14.044 13.602,6.889 27.607,12.977 41.919,18.245 12.22,4.477 24.658,8.379 37.322,11.396 10.604,2.501 21.374,4.435 32.262,5.09 7.136,0.398 14.365,0.275 21.38,-1.196 3.763,-0.786 7.422,-2.075 10.792,-3.929 4.71,-2.567 8.933,-5.942 12.805,-9.636 6.828,-6.549 12.618,-14.105 17.817,-21.989 5.52,-8.414 10.337,-17.277 14.618,-26.381 5.184,-11.038 9.58,-22.447 13.161,-34.102 3.499,-11.434 6.237,-23.121 7.813,-34.979 1.492,-11.521 2.006,-23.297 0.024,-34.794 -1.001,-5.646 -2.656,-11.235 -5.448,-16.269 -2.055,-3.728 -4.822,-7.012 -7.839,-9.994 -4.598,-4.501 -9.772,-8.374 -15.132,-11.917 -7.016,-4.613 -14.389,-8.657 -21.909,-12.38 -9.414,-4.643 -19.077,-8.767 -28.877,-12.525 -21.307,-8.133 -43.219,-14.667 -65.468,-19.673 -13.155,-2.934 -26.445,-5.328 -39.844,-6.825 -10.772,-1.171 -21.643,-1.84 -32.469,-1.11 z"
     inkscape:connector-curvature="0" /><path
     id="path2996"
     d="m 815.977,315.411 -2.4968,-90.911 7.0728,87.227 148.64,-85.136 -146.62,91.217 z"
     inkscape:connector-curvature="0" /><path
     id="path3766"
     style="color:#000000;text-indent:0;text-transform:none;block-progression:tb;enable-background:accumulate"
     d="m 633.967,510.571 a 2.5002,2.5002 0 0 0 -1.5,0.6875 l -22.188,20.5 a 2.5002,2.5002 0 1 0 3.4062,3.6562 l 22.188,-20.469 a 2.5002,2.5002 0 0 0 -1.9062,-4.375 z"
     inkscape:connector-curvature="0" /><path
     id="path3768"
     style="color:#000000;text-indent:0;text-transform:none;block-progression:tb;enable-background:accumulate"
     d="m 724.467,548.821 a 3.5004,3.5004 0 0 0 -3.25,4.0312 l 3.4062,23.906 a 3.5024057,3.5024057 0 1 0 6.9375,-0.96875 l -3.4062,-23.906 a 3.5004,3.5004 0 0 0 -3.6875,-3.0625 z"
     inkscape:connector-curvature="0" /><metadata
     id="metadata11"><rdf:RDF><cc:Work><dc:format>image/svg+xml</dc:format><dc:type
           rdf:resource="http://purl.org/dc/dcmitype/StillImage" /><cc:license
           rdf:resource="http://creativecommons.org/publicdomain/zero/1.0/" /><dc:publisher><cc:Agent
             rdf:about="http://openclipart.org/"><dc:title>Openclipart</dc:title></cc:Agent></dc:publisher><dc:title></dc:title><dc:date>2013-09-04T11:55:29</dc:date><dc:description>TV with broken screen or with flash on screen. Cartoon style clipart.</dc:description><dc:source>https://openclipart.org/detail/182930/tv-cartoon-broken-by-justin-ternet-182930</dc:source><dc:creator><cc:Agent><dc:title>Justin Ternet</dc:title></cc:Agent></dc:creator><dc:subject><rdf:Bag><rdf:li>ad</rdf:li><rdf:li>ads</rdf:li><rdf:li>advertisement</rdf:li><rdf:li>ameublement</rdf:li><rdf:li>break</rdf:li><rdf:li>broken</rdf:li><rdf:li>cabinet</rdf:li><rdf:li>cartoon</rdf:li><rdf:li>display</rdf:li><rdf:li>flash</rdf:li><rdf:li>furnishing</rdf:li><rdf:li>meuble</rdf:li><rdf:li>object</rdf:li><rdf:li>screen</rdf:li><rdf:li>television</rdf:li><rdf:li>tv</rdf:li><rdf:li>télévision</rdf:li></rdf:Bag></dc:subject></cc:Work><cc:License
         rdf:about="http://creativecommons.org/publicdomain/zero/1.0/"><cc:permits
           rdf:resource="http://creativecommons.org/ns#Reproduction" /><cc:permits
           rdf:resource="http://creativecommons.org/ns#Distribution" /><cc:permits
           rdf:resource="http://creativecommons.org/ns#DerivativeWorks" /></cc:License></rdf:RDF></metadata><g
     transform="matrix(0.32847341,0,0,0.32847341,126.53099,486.90885)"
     inkscape:label="Vrstva 1"
     id="layer1"><g
       id="g1963"
       transform="matrix(0.95377044,0.3005361,-0.3005361,0.95377044,2444.8183,-257.46841)"><path
         d="m 76.771,259.27 c -1.935,-0.73 -3.423,-2.57 -4.985,-3.95 -3.889,-4.34 -5.789,-9.85 -7.962,-15.15 -3.219,-8.73 -4.529,-17.93 -5.43,-27.15 -0.956,-8.48 -0.471,-16.97 0.099,-25.45 0.881,-6.54 2.248,-12.98 3.853,-19.37 1.503,-5.96 3.668,-11.73 5.796,-17.49 1.74,-4.6 4.609,-8.59 7.232,-12.7 2.905,-4.1 5.096,-8.61 7.261,-13.12 3.473,-7.37 4.126,-15.31 4.684,-23.28 C 86.864,93.631 83.15,88.055 77.841,82.568 71.954,78.45 64.974,78.136 58.064,77.503 c -6.819,-1.034 -12.278,0.558 -18.159,3.671 5.317,-3.007 10.634,-6.014 15.952,-9.02 -0.625,0.491 -1.25,0.982 -1.875,1.474 l -19.649,7.937 c 0.615,-0.548 1.23,-1.096 1.846,-1.644 6.717,-4.001 13.433,-8.002 20.15,-12.003 6.154,-2.455 12.006,-3.632 18.726,-2.551 7.315,0.852 14.603,1.453 20.648,6.136 5.357,5.998 9.577,12.299 10.077,20.704 0.11,8.153 -1.21,16.223 -4.02,23.893 -1.983,4.61 -3.988,9.24 -6.952,13.33 -2.526,4.15 -5.577,7.96 -7.538,12.43 -2.231,5.67 -4.384,11.37 -5.968,17.26 -1.629,6.33 -3.095,12.69 -4.096,19.16 -0.747,8.39 -1.475,16.8 -0.54,25.22 0.806,9.02 2.07,18 5.358,26.5 2.178,4.97 4.076,10.16 7.99,14.08 1.351,0.95 2.548,2.82 4.358,2.4 l -17.601,12.79 z"
         style="fill:#b3b3b3"
         id="path10961"
         inkscape:connector-curvature="0" /><path
         d="m 73.864,266.54 c -1.788,-0.08 -3.578,-0.06 -5.367,-0.09 -6.006,-1.49 -9.547,-6.28 -13.261,-10.97 -9.577,-12.17 -17.103,-25.49 -22.636,-39.92 -4.731,-13.84 -6.187,-28.47 -6.499,-43 -0.266,-10.95 1.833,-21.22 6.604,-31.02 4.486,-7.85 9.998,-15.03 14.943,-22.59 2.582,-3 3.072,-6.31 3.727,-9.85 L 70.299,99.078 c -0.39,4.252 -0.301,7.852 -3.56,11.492 -4.977,7.58 -10.535,14.74 -15.245,22.49 -5.072,9.46 -7.526,19.53 -7.442,30.32 0.067,14.38 1.318,28.83 5.83,42.57 5.382,14.31 12.783,27.46 22.994,38.93 3.716,4.16 7.192,8.44 12.996,8.95 1.865,-0.02 3.73,-0.01 5.593,-0.08 l -17.601,12.79 z"
         style="fill:#b3b3b3"
         id="path10963"
         inkscape:connector-curvature="0" /><path
         d="m 76.053,285.25 c -0.243,-0.62 -2.965,-4.89 -3.94,-6.54 -6.178,-9.59 -13.136,-18.63 -19.753,-27.91 -6.857,-8.84 -11.814,-18.51 -14.455,-29.35 -2.789,-13.51 0.932,-26.8 5.038,-39.61 5.407,-14.72 12.711,-28.61 19.699,-42.61 3.425,-5.37 4.646,-10.44 4.612,-16.26 -5.775,-6.73 -14.613,-10.04 -22.603,-13.52 -1.584,-0.69 -3.167,-1.39 -4.751,-2.08 L 56.997,96.029 c 1.531,0.72 3.062,1.441 4.594,2.162 8.538,3.829 18.092,7.089 24.238,14.409 1.71,6.89 -1.097,12.06 -4.691,18.29 -7.403,13.86 -14.908,27.73 -20.32,42.52 -3.932,12.38 -7.507,25.24 -4.817,38.28 2.49,10.57 7.087,20.21 13.692,28.88 6.634,9.34 13.772,18.3 20.616,27.49 1.707,2.45 3.579,4.78 5.129,7.32 l -19.385,9.87 z"
         style="fill:#b3b3b3"
         id="path10965"
         inkscape:connector-curvature="0" /><ellipse
         transform="matrix(1.5481,0,0,1.5069,-472.39,-166.68)"
         style="fill:#333333;stroke:#000000;stroke-width:1.60000002"
         id="path2766"
         cx="839.28625"
         cy="356.06082"
         rx="42.872631"
         ry="40.692665" /><ellipse
         transform="matrix(2.2577,0,0,2.3756,-1073.7,-486.45)"
         style="fill:#ffffff;stroke:#000000;stroke-width:1.60000002"
         id="path2768"
         cx="838.55963"
         cy="359.69412"
         rx="20.346333"
         ry="21.072989" /><ellipse
         transform="matrix(3.5421,0,0,0.98267,-2096.6,0.41953)"
         style="fill:#4d4d4d;stroke:#000000;stroke-width:1.60000002"
         id="path2776"
         cx="824.75317"
         cy="359.69412"
         rx="9.4465122"
         ry="39.966011" /><rect
         x="480.14001"
         y="299.92999"
         width="139.88"
         height="187.84"
         style="fill:#333333;stroke:#000000;stroke-width:2.68790007"
         id="rect1879" /><rect
         x="864.78003"
         y="280.54999"
         width="75.452003"
         height="350.13"
         style="fill:url(#linearGradient9149);stroke:#000000;stroke-width:1.72060001"
         id="rect1877" /><rect
         x="90.105003"
         y="218"
         width="332.81"
         height="82.838997"
         ry="17.506001"
         style="fill:url(#linearGradient7363)"
         id="rect1871" /><rect
         x="414.19"
         y="241.25"
         width="24.705999"
         height="27.613001"
         ry="13.806"
         style="fill:#000000;stroke:#000000;stroke-width:1.60000002"
         id="rect1873" /><rect
         x="430.17999"
         y="197.64999"
         width="542.08002"
         height="119.17"
         ry="0"
         style="fill:url(#linearGradient8256);stroke:#000000;stroke-width:1.60000002"
         id="rect1875" /><ellipse
         transform="matrix(2.1667,0,0,1.0816,-950.22,-32.388)"
         style="fill:#ffffff"
         id="path2778"
         cx="813.85333"
         cy="361.14743"
         rx="13.079786"
         ry="35.606083" /><g
         transform="matrix(0.70992,0,0,1,164.2,1.4533)"
         id="g3669"><rect
           x="661.26001"
           y="210.73"
           width="190.38"
           height="81.385002"
           style="fill:#1a1a1a"
           id="rect3667" /><rect
           x="671.42999"
           y="220.89999"
           width="165.67999"
           height="61.039001"
           style="fill:#000000"
           id="rect3665" /></g><g
         transform="matrix(0.99047,-0.1377,0.1377,0.99047,-86.081,16.931)"
         id="g6414"><rect
           x="652.53998"
           y="501.39001"
           width="110.45"
           height="29.066"
           style="fill:url(#linearGradient4278);stroke:#000000;stroke-width:1.60000002"
           id="rect3675" /><rect
           x="762.91998"
           y="495.51999"
           width="4.4850001"
           height="40.818001"
           style="fill:url(#linearGradient4280);stroke:#000000;stroke-width:1.47490001"
           id="rect3677" /></g><g
         transform="matrix(0.87969,0.47554,-0.47554,0.87969,316.95,-435.4)"
         id="g6418"><rect
           x="652.53998"
           y="501.39001"
           width="110.45"
           height="29.066"
           style="fill:url(#linearGradient4282);stroke:#000000;stroke-width:1.60000002"
           id="rect6420" /><rect
           x="762.91998"
           y="495.51999"
           width="4.4850001"
           height="40.818001"
           style="fill:url(#linearGradient4284);stroke:#000000;stroke-width:1.47490001"
           id="rect6422" /></g><g
         transform="matrix(0.96573,0.25953,-0.25953,0.96573,151.69,-106.99)"
         id="g6428"><rect
           x="652.53998"
           y="501.39001"
           width="110.45"
           height="29.066"
           style="fill:url(#linearGradient4286);stroke:#000000;stroke-width:1.60000002"
           id="rect6430" /><rect
           x="762.91998"
           y="495.51999"
           width="4.4850001"
           height="40.818001"
           style="fill:url(#linearGradient4288);stroke:#000000;stroke-width:1.47490001"
           id="rect6432" /></g><g
         transform="matrix(0.88678,-0.46218,0.46218,0.88678,-166.07,370.55)"
         id="g6438"><rect
           x="652.53998"
           y="501.39001"
           width="110.45"
           height="29.066"
           style="fill:url(#linearGradient4290);stroke:#000000;stroke-width:1.60000002"
           id="rect6440" /><rect
           x="762.91998"
           y="495.51999"
           width="4.4850001"
           height="40.818001"
           style="fill:url(#linearGradient4292);stroke:#000000;stroke-width:1.47490001"
           id="rect6442" /></g><g
         transform="matrix(0.91045,0.41361,-0.41361,0.91045,257.35,-112.28)"
         id="g6448"><rect
           x="652.53998"
           y="501.39001"
           width="110.45"
           height="29.066"
           style="fill:url(#linearGradient4294);stroke:#000000;stroke-width:1.60000002"
           id="rect6450" /><rect
           x="762.91998"
           y="495.51999"
           width="4.4850001"
           height="40.818001"
           style="fill:url(#linearGradient4296);stroke:#000000;stroke-width:1.47490001"
           id="rect6452" /></g><g
         transform="translate(-9.4465,-254.33)"
         id="g6458"><rect
           x="652.53998"
           y="501.39001"
           width="110.45"
           height="29.066"
           style="fill:url(#linearGradient6424);stroke:#000000;stroke-width:1.60000002"
           id="rect6460" /><rect
           x="762.91998"
           y="495.51999"
           width="4.4850001"
           height="40.818001"
           style="fill:url(#linearGradient6426);stroke:#000000;stroke-width:1.47490001"
           id="rect6462" /></g><rect
         x="481.04999"
         y="326.98999"
         width="139.52"
         height="2.9066"
         style="fill:#000000;stroke:#000000;stroke-width:1.60000002"
         id="rect9151" /><rect
         x="479.59"
         y="341.16"
         width="139.52"
         height="2.9066"
         style="fill:#000000;stroke:#000000;stroke-width:1.60000002"
         id="rect9153" /><rect
         x="479.59"
         y="356.42001"
         width="139.52"
         height="2.9066"
         style="fill:#000000;stroke:#000000;stroke-width:1.60000002"
         id="rect9155" /><rect
         x="480.67999"
         y="370.23001"
         width="139.52"
         height="2.9066"
         style="fill:#000000;stroke:#000000;stroke-width:1.60000002"
         id="rect9157" /><rect
         x="479.95999"
         y="385.13"
         width="139.52"
         height="2.9066"
         style="fill:#000000;stroke:#000000;stroke-width:1.60000002"
         id="rect9159" /><rect
         x="479.95999"
         y="400.39001"
         width="139.52"
         height="2.9066"
         style="fill:#000000;stroke:#000000;stroke-width:1.60000002"
         id="rect9161" /><rect
         x="479.95999"
         y="416.37"
         width="139.52"
         height="2.9066"
         style="fill:#000000;stroke:#000000;stroke-width:1.60000002"
         id="rect9163" /><rect
         x="479.59"
         y="430.17999"
         width="139.52"
         height="2.9066"
         style="fill:#000000;stroke:#000000;stroke-width:1.60000002"
         id="rect9165" /><rect
         x="479.59"
         y="445.44"
         width="139.52"
         height="2.9066"
         style="fill:#000000;stroke:#000000;stroke-width:1.60000002"
         id="rect9167" /><rect
         x="480.67999"
         y="459.97"
         width="139.52"
         height="2.9066"
         style="fill:#000000;stroke:#000000;stroke-width:1.60000002"
         id="rect9169" /><rect
         x="479.59"
         y="474.14001"
         width="139.52"
         height="2.9066"
         style="fill:#000000;stroke:#000000;stroke-width:1.60000002"
         id="rect9171" /><rect
         x="832.75"
         y="232.53"
         width="84.292"
         height="8.7199001"
         ry="4.3599"
         style="fill:#000000;stroke:#000000;stroke-width:1.60000002"
         id="rect9173" /><rect
         x="831.28998"
         y="232.53"
         width="15.986"
         height="52.319"
         ry="7.9931998"
         style="fill:#000000;stroke:#000000;stroke-width:1.60000002"
         id="rect9175" /><ellipse
         style="fill:#000000;stroke:#000000;stroke-width:1.60000002"
         id="path9177"
         cx="473.7789"
         cy="244.88266"
         rx="10.173166"
         ry="7.9932022" /><ellipse
         style="fill:#000000;stroke:#000000;stroke-width:1.60000002"
         id="path9183"
         cx="568.24402"
         cy="252.1492"
         rx="11.626476"
         ry="7.9932022" /><ellipse
         style="fill:#000000;stroke:#000000;stroke-width:1.60000002"
         id="path9185"
         cx="890.87872"
         cy="263.7757"
         rx="8.7198572"
         ry="9.4465122" /></g></g></svg>